<?xml version="1.0" standalone="no"?>
<!DOCTYPE svg PUBLIC "-//W3C//DTD SVG 20010904//EN"
 "http://www.w3.org/TR/2001/REC-SVG-20010904/DTD/svg10.dtd">
<svg version="1.0" xmlns="http://www.w3.org/2000/svg"
 width="180.000000pt" height="180.000000pt" viewBox="0 0 180.000000 180.000000"
 preserveAspectRatio="xMidYMid meet">

<g transform="translate(0.000000,180.000000) scale(0.100000,-0.100000)"
fill="#000000" stroke="none">
<path d="M0 900 l0 -900 900 0 900 0 0 900 0 900 -900 0 -900 0 0 -900z m1690
695 c0 -7 -178 -700 -189 -735 -6 -20 -49 -55 -57 -47 -1 1 36 159 83 350 47
191 83 350 80 353 -3 4 -47 -3 -98 -15 -94 -22 -105 -21 -111 13 -3 17 13 23
127 51 133 33 165 39 165 30z m-710 -45 c29 -29 25 -48 -4 -21 -47 44 -112 5
-103 -60 5 -36 3 -38 -35 -54 -50 -20 -63 -12 -17 10 31 15 34 20 32 53 -6 73
78 121 127 72z m381 -26 c27 -24 35 -79 16 -108 -9 -13 -12 -27 -7 -32 13 -14
40 -115 39 -148 0 -25 -3 -20 -15 23 -8 30 -23 73 -33 96 -16 36 -16 44 -5 60
23 31 17 71 -12 94 -47 37 -88 26 -103 -27 -8 -28 -6 -36 24 -72 20 -24 35
-35 38 -27 7 20 46 -53 53 -99 3 -23 2 -53 -2 -66 -8 -21 -9 -21 -15 12 -6 32
-6 32 -8 7 -1 -35 -22 -76 -52 -102 -13 -12 -19 -14 -14 -5 4 8 -3 5 -16 -7
-13 -12 -42 -30 -64 -40 -22 -10 -51 -26 -65 -35 -42 -27 -87 -32 -118 -12
-25 16 -25 18 -7 24 11 4 28 4 37 -1 24 -13 82 -11 96 3 7 7 12 19 12 27 0 11
-5 9 -16 -7 -16 -23 -66 -30 -93 -13 -11 7 -8 13 13 26 35 23 33 41 -5 49 -72
14 -87 1 -48 -41 21 -21 21 -23 4 -29 -22 -9 -55 27 -56 60 0 20 -1 20 -8 2
-7 -18 -9 -17 -28 10 -28 40 -54 92 -51 102 2 5 -10 20 -27 35 -23 21 -25 26
-10 21 20 -6 20 -6 0 13 -34 30 -47 50 -55 88 -10 44 -4 45 14 1 7 -18 24 -43
37 -55 25 -23 72 -29 63 -8 -8 23 68 119 115 144 24 13 40 23 35 23 -5 1 2 7
16 15 28 16 126 20 162 6 17 -6 31 -5 48 5 30 17 85 11 111 -12z m-631 -123
c0 -5 -24 -12 -52 -15 -49 -7 -138 -39 -138 -50 0 -2 10 -2 23 1 l22 4 -23
-13 c-13 -8 -42 -33 -65 -55 -30 -29 -47 -39 -57 -33 -10 6 0 22 41 65 29 31
66 63 81 71 52 27 168 44 168 25z m-322 -141 c-7 -11 -18 -20 -24 -20 -6 0
-22 -8 -35 -19 -13 -10 -39 -22 -56 -25 -21 -5 -33 -14 -33 -24 -1 -9 -7 -67
-14 -128 -10 -86 -19 -118 -36 -142 -17 -24 -21 -38 -16 -64 10 -49 10 -57 -8
-137 -22 -98 -38 -125 -31 -51 47 480 57 576 62 580 6 6 163 48 186 49 15 1
15 -2 5 -19z m268 -32 c-3 -13 -12 -56 -18 -97 -12 -72 -11 -74 11 -92 30 -24
59 -24 177 2 91 20 119 20 98 0 -5 -5 -73 -35 -152 -66 -78 -32 -145 -61 -148
-67 -3 -5 11 -2 33 7 75 32 243 95 254 95 21 0 -4 -21 -44 -37 -22 -9 -36 -18
-29 -21 9 -3 8 -11 -3 -32 -18 -35 -63 -50 -155 -50 -74 -1 -67 -9 32 -35 90
-24 109 -17 130 42 9 26 24 57 32 68 10 15 9 5 -4 -35 -11 -30 -19 -65 -20
-77 0 -18 -9 -23 -56 -33 -68 -14 -75 -13 -206 49 -97 45 -107 52 -126 92 -30
63 -46 131 -38 162 4 17 27 40 66 67 88 60 96 61 72 14 -18 -36 -62 -160 -62
-173 1 -3 25 46 56 109 54 113 66 130 93 130 9 0 11 -7 7 -22z m94 14 c0 -4
-23 -39 -51 -77 l-52 -70 7 40 c3 22 11 57 16 78 10 34 14 37 45 37 19 0 35
-3 35 -8z m-324 -37 c18 -14 17 -15 -18 -9 -31 5 -41 2 -62 -20 -15 -14 -26
-21 -26 -15 0 17 48 59 68 59 10 0 27 -7 38 -15z m-26 -86 c0 -7 -11 -9 -29
-6 -35 7 -87 -6 -83 -22 1 -6 -5 -11 -13 -11 -22 0 -18 17 7 34 26 19 118 22
118 5z m-3 -51 c-2 -7 4 -35 14 -61 11 -26 19 -56 19 -67 0 -10 3 -20 8 -23 4
-2 0 -2 -8 1 -50 16 -62 8 -141 -93 -42 -54 -82 -113 -88 -130 -10 -29 -10
-28 -5 10 3 22 28 87 57 145 62 127 63 131 39 103 -10 -12 -38 -43 -61 -69
-23 -26 -39 -39 -35 -28 4 10 21 35 38 54 18 19 49 58 70 85 43 56 73 85 88
85 5 0 8 -6 5 -12z m801 -70 c-13 -24 -27 -45 -32 -47 -5 -2 4 -9 20 -17 l29
-12 -28 -1 c-16 -1 -48 -6 -73 -12 -36 -9 -42 -14 -33 -25 9 -11 6 -12 -20 -3
-17 6 -31 14 -31 19 0 7 77 40 96 40 5 0 27 23 47 50 21 28 40 50 42 50 3 0
-5 -19 -17 -42z m-264 -42 c-6 -25 -24 -37 -24 -16 0 13 23 50 28 46 1 -2 0
-15 -4 -30z m437 -82 c-12 -32 -26 -61 -33 -66 -26 -16 -29 -7 -8 25 12 17 29
49 37 70 24 57 27 37 4 -29z m-366 1 c26 -25 31 -50 15 -75 -7 -12 -10 -8 -10
15 0 17 -4 35 -8 41 -12 18 -52 35 -64 28 -7 -4 -8 -3 -4 4 12 20 45 14 71
-13z m-548 -35 c40 -24 67 -83 53 -111 -13 -24 -27 -24 -40 0 -11 21 -59 53
-103 70 -26 10 -32 7 -79 -37 -57 -52 -55 -42 5 30 54 66 109 82 164 48z m469
-42 c8 -16 10 -28 5 -28 -9 0 -51 73 -51 88 1 10 28 -27 46 -60z m-256 -60 c0
-18 -16 -6 -39 30 l-24 37 32 -29 c17 -17 31 -33 31 -38z m923 -15 c4 -38 7
-89 7 -115 0 -47 -1 -48 -30 -48 -23 0 -30 5 -30 19 0 14 -6 17 -25 13 -14 -2
-25 -11 -25 -18 0 -14 -48 -39 -58 -30 -2 3 12 47 31 98 20 51 41 105 46 121
9 22 17 27 44 27 l34 0 6 -67z m-828 25 c20 -20 20 -20 -17 -4 -64 26 -78 37
-38 30 19 -4 44 -15 55 -26z m682 16 c9 -24 -26 -201 -43 -215 -19 -16 -134
-29 -134 -15 0 6 9 61 21 123 l21 112 51 4 c29 2 58 4 65 5 7 1 15 -5 19 -14z
m-1111 -9 c-3 -19 -61 -85 -75 -85 -20 0 -12 19 25 60 38 42 54 50 50 25z
m244 -15 c0 -10 -4 -21 -8 -24 -5 -3 -9 8 -9 24 0 16 4 27 9 24 4 -3 8 -14 8
-24z m697 -2 c-3 -13 -14 -67 -23 -120 -17 -97 -18 -98 -45 -98 -26 0 -29 3
-35 50 -8 61 -20 57 -29 -10 -6 -44 -10 -50 -31 -50 -29 0 -29 -1 -4 130 11
58 20 106 20 107 0 2 11 3 24 3 26 0 29 -6 42 -75 l7 -40 8 40 c19 85 18 85
45 85 22 0 25 -4 21 -22z m-207 -124 l0 -114 -25 0 c-18 0 -25 5 -25 20 0 30
-38 26 -52 -5 -7 -16 -19 -25 -35 -25 -12 0 -23 3 -23 8 1 4 20 56 43 117 39
101 44 110 72 116 17 3 33 4 38 2 4 -2 7 -56 7 -119z m-134 49 c-9 -74 -27
-103 -67 -103 -30 0 -33 -3 -43 -52 -5 -21 -12 -28 -31 -28 -22 0 -24 3 -18
33 4 17 14 68 22 112 18 88 21 91 110 94 l34 1 -7 -57z m-200 21 c-3 -9 -6
-20 -6 -25 0 -5 -11 -9 -25 -9 -14 0 -25 -4 -25 -9 0 -5 -3 -16 -6 -25 -5 -12
0 -16 21 -16 36 0 31 -34 -7 -38 -18 -2 -27 -10 -31 -28 -3 -20 0 -24 20 -24
20 0 24 -4 21 -22 -3 -20 -10 -23 -50 -26 -56 -4 -54 -9 -32 109 21 118 21
117 57 122 66 8 69 8 63 -9z m-170 -26 c-33 -156 -33 -162 0 -155 19 3 24 1
20 -10 -3 -8 -6 -21 -6 -28 0 -9 -17 -14 -50 -17 -57 -3 -56 -7 -36 89 8 37
17 85 20 106 6 31 11 37 32 37 20 0 24 -4 20 -22z m-106 -50 c0 -35 3 -87 6
-115 7 -52 6 -53 -20 -53 -16 0 -26 5 -26 15 0 23 -47 19 -55 -5 -4 -12 -15
-20 -30 -20 -23 0 -23 0 20 112 42 112 49 120 98 127 4 1 7 -27 7 -61z m-114
-5 c-10 -73 -25 -103 -55 -109 -46 -10 -48 -12 -54 -42 -7 -37 -47 -53 -47
-19 1 48 39 200 51 208 8 5 36 9 63 9 l48 0 -6 -47z m-177 -20 c-84 -138 -101
-213 -56 -261 l22 -25 -22 12 c-30 15 -43 42 -43 86 0 46 20 92 71 165 47 67
63 80 28 23z m1196 -130 c-10 -57 -15 -73 -26 -73 -5 0 -9 10 -9 22 0 21 0 21
-15 2 -8 -11 -15 -14 -15 -6 0 17 -20 15 -20 -3 0 -8 -5 -15 -11 -15 -8 0 -10
13 -5 38 3 20 6 43 6 50 0 6 9 12 20 12 14 0 20 -7 20 -22 1 -22 2 -21 16 5 8
15 21 27 30 27 12 0 14 -8 9 -37z m-135 -28 c0 -30 -4 -55 -10 -55 -5 0 -10 5
-10 10 0 6 -7 10 -15 10 -8 0 -15 -4 -15 -10 0 -5 -7 -10 -15 -10 -28 0 29
109 58 110 4 0 7 -25 7 -55z m-90 35 c0 -5 -8 -14 -17 -19 -17 -10 -17 -10 0
-11 24 0 21 -19 -5 -30 -19 -7 -20 -9 -5 -9 29 -1 14 -26 -17 -29 -23 -3 -27
0 -23 15 3 10 8 31 12 48 4 16 12 33 18 37 17 11 37 10 37 -2z m-70 -10 c0 -5
-6 -10 -14 -10 -9 0 -17 -15 -21 -40 -4 -23 -12 -40 -20 -40 -10 0 -11 9 -5
35 5 22 4 35 -3 38 -6 2 -7 9 -3 15 9 14 66 16 66 2z m-143 -23 c-2 -7 -12
-12 -23 -12 -13 0 -20 -8 -22 -29 -2 -17 0 -26 7 -22 5 4 8 13 4 21 -3 9 1 15
11 15 19 0 21 -31 4 -48 -19 -19 -58 -15 -57 6 4 52 15 76 39 82 29 8 43 3 37
-13z m-91 -4 c-2 -10 -7 -32 -11 -50 -8 -38 -32 -51 -38 -20 l-4 22 -8 -22
c-9 -28 -25 -30 -25 -4 0 38 13 81 25 81 6 0 17 -10 23 -22 10 -22 11 -22 11
-2 1 22 9 34 23 34 5 0 7 -8 4 -17z m-111 -47 c-5 -29 -12 -46 -21 -46 -15 0
-10 48 8 83 15 29 20 13 13 -37z m-45 28 c0 -10 -7 -14 -22 -12 -16 2 -23 -4
-29 -24 -8 -30 -1 -36 19 -16 15 15 26 4 19 -17 -4 -9 -19 -15 -38 -15 -31 0
-32 0 -25 42 4 23 12 46 19 50 21 14 57 9 57 -8z m-110 -44 c0 -46 -13 -67
-23 -37 -3 9 -8 9 -21 -2 -26 -22 -29 -6 -7 43 28 64 51 62 51 -4z m-80 34 c0
-9 -23 -88 -27 -93 -2 -3 -10 4 -18 15 -13 17 -14 17 -15 2 0 -10 -6 -18 -14
-18 -11 0 -12 8 -5 42 6 23 12 45 15 50 6 9 64 11 64 2z m-170 -27 c0 -2 -10
-12 -22 -23 l-23 -19 19 23 c18 21 26 27 26 19z"/>
<path d="M924 1301 c3 -5 -1 -14 -9 -21 -19 -16 -19 -70 -1 -95 13 -18 15 -18
49 10 36 30 42 50 27 95 -8 25 -8 25 -9 -4 l-1 -29 -21 27 c-19 24 -48 38 -35
17z m33 -63 c-3 -8 -6 -5 -6 6 -1 11 2 17 5 13 3 -3 4 -12 1 -19z"/>
<path d="M1139 1275 c-19 -13 -45 -30 -59 -36 -18 -8 -21 -13 -10 -16 8 -3 29
-21 47 -39 38 -40 56 -42 88 -9 30 29 32 54 5 88 -15 18 -17 27 -8 30 7 3 4 6
-8 6 -12 1 -36 -10 -55 -24z m1 -41 c0 -8 -5 -12 -10 -9 -6 4 -8 11 -5 16 9
14 15 11 15 -7z"/>
<path d="M500 740 c0 -11 5 -20 10 -20 6 0 10 9 10 20 0 11 -4 20 -10 20 -5 0
-10 -9 -10 -20z"/>
<path d="M1547 680 c-12 -31 -13 -40 -3 -40 8 0 16 17 19 37 9 50 3 51 -16 3z"/>
<path d="M1389 723 c-10 -2 -19 -19 -23 -41 -3 -20 -8 -52 -12 -69 -6 -29 -4
-33 14 -33 12 0 22 8 25 23 9 33 20 127 16 126 -2 -1 -11 -3 -20 -6z"/>
<path d="M1026 636 c-3 -13 -9 -31 -12 -40 -4 -11 -1 -16 10 -16 12 0 16 10
16 40 0 45 -5 51 -14 16z"/>
<path d="M876 658 c-15 -47 -14 -58 5 -58 10 0 19 6 19 13 0 6 3 22 6 35 5 16
2 22 -10 22 -9 0 -18 -6 -20 -12z"/>
<path d="M422 556 c-13 -44 -12 -48 7 -37 7 5 11 22 9 42 l-4 34 -12 -39z"/>
<path d="M287 593 c-11 -10 -8 -63 2 -63 12 0 16 8 25 43 6 26 -10 38 -27 20z"/>
<path d="M460 365 c0 -8 5 -15 10 -15 6 0 10 7 10 15 0 8 -4 15 -10 15 -5 0
-10 -7 -10 -15z"/>
</g>
</svg>
